<svg width="154" height="93" viewBox="0 0 154 93" fill="none" xmlns="http://www.w3.org/2000/svg">
<path d="M40.8574 45H35.1973L32.9473 39.1465H22.6465L20.5195 45H15L25.0371 19.2305H30.5391L40.8574 45ZM31.2773 34.8047L27.7266 25.2422L24.2461 34.8047H31.2773ZM59.733 31.8516L54.8638 32.7305C54.6998 31.7578 54.3248 31.0254 53.7388 30.5332C53.1646 30.041 52.4146 29.7949 51.4888 29.7949C50.2583 29.7949 49.274 30.2227 48.5357 31.0781C47.8091 31.9219 47.4458 33.3398 47.4458 35.332C47.4458 37.5469 47.815 39.1113 48.5533 40.0254C49.3033 40.9395 50.3052 41.3965 51.5591 41.3965C52.4966 41.3965 53.2642 41.1328 53.8619 40.6055C54.4595 40.0664 54.8814 39.1465 55.1275 37.8457L59.979 38.6719C59.4751 40.8984 58.5083 42.5801 57.0787 43.7168C55.649 44.8535 53.733 45.4219 51.3306 45.4219C48.6001 45.4219 46.4205 44.5605 44.7915 42.8379C43.1744 41.1152 42.3658 38.7305 42.3658 35.6836C42.3658 32.6016 43.1802 30.2051 44.8091 28.4941C46.438 26.7715 48.6412 25.9102 51.4185 25.9102C53.6919 25.9102 55.4966 26.4023 56.8326 27.3867C58.1802 28.3594 59.147 29.8477 59.733 31.8516ZM79.628 31.8516L74.7589 32.7305C74.5948 31.7578 74.2198 31.0254 73.6339 30.5332C73.0597 30.041 72.3097 29.7949 71.3839 29.7949C70.1534 29.7949 69.169 30.2227 68.4308 31.0781C67.7042 31.9219 67.3409 33.3398 67.3409 35.332C67.3409 37.5469 67.71 39.1113 68.4483 40.0254C69.1983 40.9395 70.2003 41.3965 71.4542 41.3965C72.3917 41.3965 73.1593 41.1328 73.7569 40.6055C74.3546 40.0664 74.7765 39.1465 75.0225 37.8457L79.8741 38.6719C79.3702 40.8984 78.4034 42.5801 76.9737 43.7168C75.544 44.8535 73.628 45.4219 71.2257 45.4219C68.4952 45.4219 66.3155 44.5605 64.6866 42.8379C63.0694 41.1152 62.2608 38.7305 62.2608 35.6836C62.2608 32.6016 63.0753 30.2051 64.7042 28.4941C66.3331 26.7715 68.5362 25.9102 71.3136 25.9102C73.587 25.9102 75.3917 26.4023 76.7276 27.3867C78.0753 28.3594 79.0421 29.8477 79.628 31.8516ZM94.0563 39.0586L98.9782 39.8848C98.3453 41.6895 97.3434 43.0664 95.9723 44.0156C94.6129 44.9531 92.9078 45.4219 90.8571 45.4219C87.611 45.4219 85.2086 44.3613 83.65 42.2402C82.4196 40.541 81.8043 38.3965 81.8043 35.8066C81.8043 32.7129 82.6129 30.293 84.2301 28.5469C85.8473 26.7891 87.8922 25.9102 90.3649 25.9102C93.1422 25.9102 95.3336 26.8301 96.9391 28.6699C98.5446 30.498 99.3121 33.3047 99.2418 37.0898H86.8668C86.902 38.5547 87.3004 39.6973 88.0621 40.5176C88.8239 41.3262 89.7731 41.7305 90.9098 41.7305C91.6832 41.7305 92.3336 41.5195 92.861 41.0977C93.3883 40.6758 93.7868 39.9961 94.0563 39.0586ZM94.3375 34.0664C94.3024 32.6367 93.9332 31.5527 93.2301 30.8145C92.527 30.0645 91.6715 29.6895 90.6637 29.6895C89.5856 29.6895 88.695 30.082 87.9918 30.8672C87.2887 31.6523 86.943 32.7188 86.9547 34.0664H94.3375ZM101.401 39.6738L106.358 38.918C106.569 39.8789 106.996 40.6113 107.641 41.1152C108.285 41.6074 109.188 41.8535 110.348 41.8535C111.625 41.8535 112.586 41.6191 113.231 41.1504C113.664 40.8223 113.881 40.3828 113.881 39.832C113.881 39.457 113.764 39.1465 113.529 38.9004C113.283 38.666 112.733 38.4492 111.877 38.25C107.893 37.3711 105.367 36.5684 104.301 35.8418C102.824 34.834 102.086 33.4336 102.086 31.6406C102.086 30.0234 102.725 28.6641 104.002 27.5625C105.279 26.4609 107.26 25.9102 109.944 25.9102C112.498 25.9102 114.397 26.3262 115.639 27.1582C116.881 27.9902 117.737 29.2207 118.205 30.8496L113.547 31.7109C113.348 30.9844 112.967 30.4277 112.404 30.041C111.854 29.6543 111.063 29.4609 110.031 29.4609C108.731 29.4609 107.799 29.6426 107.237 30.0059C106.862 30.2637 106.674 30.5977 106.674 31.0078C106.674 31.3594 106.838 31.6582 107.166 31.9043C107.612 32.2324 109.147 32.6953 111.772 33.293C114.408 33.8906 116.248 34.623 117.291 35.4902C118.322 36.3691 118.838 37.5938 118.838 39.1641C118.838 40.875 118.123 42.3457 116.694 43.5762C115.264 44.8066 113.149 45.4219 110.348 45.4219C107.805 45.4219 105.789 44.9062 104.301 43.875C102.824 42.8438 101.858 41.4434 101.401 39.6738ZM121.296 39.6738L126.253 38.918C126.464 39.8789 126.891 40.6113 127.536 41.1152C128.18 41.6074 129.083 41.8535 130.243 41.8535C131.52 41.8535 132.481 41.6191 133.126 41.1504C133.559 40.8223 133.776 40.3828 133.776 39.832C133.776 39.457 133.659 39.1465 133.425 38.9004C133.178 38.666 132.628 38.4492 131.772 38.25C127.788 37.3711 125.262 36.5684 124.196 35.8418C122.719 34.834 121.981 33.4336 121.981 31.6406C121.981 30.0234 122.62 28.6641 123.897 27.5625C125.175 26.4609 127.155 25.9102 129.839 25.9102C132.393 25.9102 134.292 26.3262 135.534 27.1582C136.776 27.9902 137.632 29.2207 138.1 30.8496L133.442 31.7109C133.243 30.9844 132.862 30.4277 132.3 30.041C131.749 29.6543 130.958 29.4609 129.926 29.4609C128.626 29.4609 127.694 29.6426 127.132 30.0059C126.757 30.2637 126.569 30.5977 126.569 31.0078C126.569 31.3594 126.733 31.6582 127.061 31.9043C127.507 32.2324 129.042 32.6953 131.667 33.293C134.303 33.8906 136.143 34.623 137.186 35.4902C138.217 36.3691 138.733 37.5938 138.733 39.1641C138.733 40.875 138.018 42.3457 136.589 43.5762C135.159 44.8066 133.044 45.4219 130.243 45.4219C127.7 45.4219 125.684 44.9062 124.196 43.875C122.719 42.8438 121.753 41.4434 121.296 39.6738Z" fill="white"/>
<path d="M63.6016 49.2305H73.1113C75.2559 49.2305 76.8906 49.3945 78.0156 49.7227C79.5273 50.168 80.8223 50.959 81.9004 52.0957C82.9785 53.2324 83.7988 54.627 84.3613 56.2793C84.9238 57.9199 85.2051 59.9473 85.2051 62.3613C85.2051 64.4824 84.9414 66.3105 84.4141 67.8457C83.7695 69.7207 82.8496 71.2383 81.6543 72.3984C80.752 73.2773 79.5332 73.9629 77.998 74.4551C76.8496 74.8184 75.3145 75 73.3926 75H63.6016V49.2305ZM68.8047 53.5898V70.6582H72.6895C74.1426 70.6582 75.1914 70.5762 75.8359 70.4121C76.6797 70.2012 77.377 69.8438 77.9277 69.3398C78.4902 68.8359 78.9473 68.0098 79.2988 66.8613C79.6504 65.7012 79.8262 64.125 79.8262 62.1328C79.8262 60.1406 79.6504 58.6113 79.2988 57.5449C78.9473 56.4785 78.4551 55.6465 77.8223 55.0488C77.1895 54.4512 76.3867 54.0469 75.4141 53.8359C74.6875 53.6719 73.2637 53.5898 71.1426 53.5898H68.8047ZM93.147 62.0273L88.6646 61.2188C89.1685 59.4141 90.0357 58.0781 91.2662 57.2109C92.4966 56.3438 94.3248 55.9102 96.7505 55.9102C98.9537 55.9102 100.594 56.1738 101.672 56.7012C102.751 57.2168 103.506 57.8789 103.94 58.6875C104.385 59.4844 104.608 60.9551 104.608 63.0996L104.555 68.8652C104.555 70.5059 104.631 71.7188 104.784 72.5039C104.948 73.2773 105.247 74.1094 105.68 75H100.794C100.665 74.6719 100.506 74.1855 100.319 73.541C100.237 73.248 100.178 73.0547 100.143 72.9609C99.2994 73.7812 98.397 74.3965 97.4361 74.8066C96.4751 75.2168 95.4498 75.4219 94.3599 75.4219C92.438 75.4219 90.9205 74.9004 89.8072 73.8574C88.7056 72.8145 88.1548 71.4961 88.1548 69.9023C88.1548 68.8477 88.4068 67.9102 88.9107 67.0898C89.4146 66.2578 90.1177 65.625 91.0201 65.1914C91.9341 64.7461 93.2466 64.3594 94.9576 64.0312C97.2662 63.5977 98.8658 63.1934 99.7564 62.8184V62.3262C99.7564 61.377 99.522 60.7031 99.0533 60.3047C98.5845 59.8945 97.6998 59.6895 96.399 59.6895C95.5201 59.6895 94.8345 59.8652 94.3423 60.2168C93.8501 60.5566 93.4517 61.1602 93.147 62.0273ZM99.7564 66.0352C99.1236 66.2461 98.1216 66.498 96.7505 66.791C95.3794 67.084 94.483 67.3711 94.0611 67.6523C93.4165 68.1094 93.0943 68.6895 93.0943 69.3926C93.0943 70.084 93.3521 70.6816 93.8677 71.1855C94.3833 71.6895 95.0396 71.9414 95.8365 71.9414C96.7271 71.9414 97.5767 71.6484 98.3853 71.0625C98.983 70.6172 99.3755 70.0723 99.563 69.4277C99.6919 69.0059 99.7564 68.2031 99.7564 67.0195V66.0352ZM117.911 56.332V60.2695H114.536V67.793C114.536 69.3164 114.566 70.207 114.624 70.4648C114.694 70.7109 114.841 70.916 115.064 71.0801C115.298 71.2441 115.579 71.3262 115.907 71.3262C116.364 71.3262 117.026 71.168 117.894 70.8516L118.316 74.6836C117.167 75.1758 115.866 75.4219 114.413 75.4219C113.523 75.4219 112.72 75.2754 112.005 74.9824C111.29 74.6777 110.763 74.291 110.423 73.8223C110.095 73.3418 109.866 72.6973 109.737 71.8887C109.632 71.3145 109.579 70.1543 109.579 68.4082V60.2695H107.312V56.332H109.579V52.623L114.536 49.7402V56.332H117.911ZM124.886 62.0273L120.404 61.2188C120.908 59.4141 121.775 58.0781 123.006 57.2109C124.236 56.3438 126.064 55.9102 128.49 55.9102C130.693 55.9102 132.334 56.1738 133.412 56.7012C134.49 57.2168 135.246 57.8789 135.679 58.6875C136.125 59.4844 136.347 60.9551 136.347 63.0996L136.295 68.8652C136.295 70.5059 136.371 71.7188 136.523 72.5039C136.687 73.2773 136.986 74.1094 137.42 75H132.533C132.404 74.6719 132.246 74.1855 132.058 73.541C131.976 73.248 131.918 73.0547 131.882 72.9609C131.039 73.7812 130.136 74.3965 129.175 74.8066C128.214 75.2168 127.189 75.4219 126.099 75.4219C124.177 75.4219 122.66 74.9004 121.547 73.8574C120.445 72.8145 119.894 71.4961 119.894 69.9023C119.894 68.8477 120.146 67.9102 120.65 67.0898C121.154 66.2578 121.857 65.625 122.759 65.1914C123.673 64.7461 124.986 64.3594 126.697 64.0312C129.006 63.5977 130.605 63.1934 131.496 62.8184V62.3262C131.496 61.377 131.261 60.7031 130.793 60.3047C130.324 59.8945 129.439 59.6895 128.138 59.6895C127.259 59.6895 126.574 59.8652 126.082 60.2168C125.589 60.5566 125.191 61.1602 124.886 62.0273ZM131.496 66.0352C130.863 66.2461 129.861 66.498 128.49 66.791C127.119 67.084 126.222 67.3711 125.8 67.6523C125.156 68.1094 124.834 68.6895 124.834 69.3926C124.834 70.084 125.091 70.6816 125.607 71.1855C126.123 71.6895 126.779 71.9414 127.576 71.9414C128.466 71.9414 129.316 71.6484 130.125 71.0625C130.722 70.6172 131.115 70.0723 131.302 69.4277C131.431 69.0059 131.496 68.2031 131.496 67.0195V66.0352Z" fill="white"/>
<rect x="1.5" y="1.5" width="142" height="79" stroke="white" stroke-width="3"/>
<rect x="10.5" y="12.5" width="142" height="79" stroke="white" stroke-width="3"/>
</svg>
