<svg width="38" height="34" viewBox="0 0 38 34" fill="none" xmlns="http://www.w3.org/2000/svg">
<path d="M14.4062 19.2188V33.9141H0.835938V22.3125C0.835938 16.0313 1.58594 11.4844 3.08594 8.67188C5.05469 4.92188 8.17188 2.08594 12.4375 0.164062L15.5312 5.08594C12.9531 6.16406 11.0547 7.78125 9.83594 9.9375C8.61719 12.0469 7.9375 15.1406 7.79688 19.2188H14.4062ZM36.2031 19.2188V33.9141H22.6328V22.3125C22.6328 16.0313 23.3828 11.4844 24.8828 8.67188C26.8516 4.92188 29.9688 2.08594 34.2344 0.164062L37.3281 5.08594C34.75 6.16406 32.8516 7.78125 31.6328 9.9375C30.4141 12.0469 29.7344 15.1406 29.5938 19.2188H36.2031Z" fill="#AA80D3"/>
</svg>
